<svg xmlns="http://www.w3.org/2000/svg" viewBox="0 0 23.04 31.77"><defs><style>.a{fill:#fff;}</style></defs><title>Asset 14</title><path class="a" d="M22.83,25.76l-1.55-2.91V15.67a9.77,9.77,0,0,0-7-9.37V2.71a2.71,2.71,0,1,0-5.42,0V6.29a9.78,9.78,0,0,0-7,9.37v7.18L.21,25.76A1.79,1.79,0,0,0,1.79,28.4H7.95a3.58,3.58,0,0,0,7.15,0h6.15a1.79,1.79,0,0,0,1.58-2.63ZM10.25,2.71a1.27,1.27,0,1,1,2.55,0V6a9.8,9.8,0,0,0-2.55,0V2.71Zm-7,13a8.32,8.32,0,0,1,16.65,0v6.59H3.2Zm8.32,14.67A2.15,2.15,0,0,1,9.38,28.4h4.27A2.15,2.15,0,0,1,11.52,30.34Zm10-3.55a.35.35,0,0,1-.31.17H1.79a.36.36,0,0,1-.32-.53l1.46-2.74H20.1l1.46,2.74A.35.35,0,0,1,21.55,26.79Z"/><path class="a" d="M11.52,9.25A6.42,6.42,0,0,0,5.1,15.67a.72.72,0,0,0,1.43,0,5,5,0,0,1,5-5,.72.72,0,1,0,0-1.43Z"/></svg>