<svg xmlns="http://www.w3.org/2000/svg" viewBox="0 0 57.26 61.01"><defs><style>.a{fill:#666;}</style></defs><title>Asset 8</title><path class="a" d="M53.33,1.13,39.05,28.8l.24.07a10.63,10.63,0,0,1,1.7.71,9,9,0,0,1,1.73,1.18L57,3a2.08,2.08,0,1,0-3.7-1.91Z"/><path class="a" d="M43.65,37.48a7.44,7.44,0,0,0-1.92-4.79l-.28-.28a6.87,6.87,0,0,0-1.41-1,8.54,8.54,0,0,0-1.38-.58,4.53,4.53,0,0,0-.59-.15,4.62,4.62,0,0,0-.82-.07c-2,0-3.94,1.26-5.41,2.55a46.23,46.23,0,0,1-4.78,3.92A21.12,21.12,0,0,1,21,39.6a52.35,52.35,0,0,1-8.5,1.62,69.32,69.32,0,0,1-7.71.45q-1.53,0-3.06-.08H1.41A1.41,1.41,0,0,0,.08,43.45a21.52,21.52,0,0,0,6.09,9,32.33,32.33,0,0,0,8.28,5.3A43.12,43.12,0,0,0,24.89,61h.25c5.73-.19,10.2-2.1,13.28-5.67C42.47,50.63,43.94,43.56,43.65,37.48ZM40,44.19a17.29,17.29,0,0,1-3.69,9.32c-2.5,2.89-6.18,4.46-11,4.67h0l-.18,0c-.48-.09-1.67-.31-3.26-.75.45-.2.92-.44,1.4-.71s.85-.5,1.28-.78c1.31-.85,2.59-1.81,3.58-2.6a.25.25,0,0,0-.26-.43,34.27,34.27,0,0,1-7.4,1.91c-.78.13-1.53.23-2.22.32s-1.54.18-2.15.24l-.48-.21a33.53,33.53,0,0,1-3.85-2.07,15.21,15.21,0,0,0,1.62-.25c.5-.1,1-.23,1.51-.36a39.55,39.55,0,0,0,3.83-1.28.17.17,0,0,0-.08-.32c-1.74.17-4.16.18-6.22.15l-1.88,0-1.76-.06L8,50.32q-.44-.4-.84-.81c.42,0,.85-.11,1.29-.19s.83-.17,1.25-.28A38.23,38.23,0,0,0,14,47.64a.17.17,0,0,0-.08-.32c-1.64.16-3.86.18-5.84.16l-1.4,0-1.36,0A18.25,18.25,0,0,1,3.85,45a.38.38,0,0,1,.34-.56h.45A73.84,73.84,0,0,0,12.88,44c6.89-.78,12.51-2.46,16.76-5a.77.77,0,0,1,.39-.11.77.77,0,0,1,.37.1,73.28,73.28,0,0,0,9.05,4.35A.77.77,0,0,1,40,44.19Z"/><circle class="a" cx="49.87" cy="51.62" r="3.34"/><circle class="a" cx="42.66" cy="59.28" r="1.69"/><circle class="a" cx="51.82" cy="58.89" r="1.69"/></svg>