<svg xmlns="http://www.w3.org/2000/svg" viewBox="0 0 57 50.78"><defs><style>.a{fill:#666;}</style></defs><title>Asset 16</title><path class="a" d="M53.56,0H3.44A3.44,3.44,0,0,0,0,3.44V38a3.44,3.44,0,0,0,3.44,3.44H20.61V44a4.17,4.17,0,0,1-4.16,4.16H12.67a1.31,1.31,0,0,0,0,2.63H44.33a1.31,1.31,0,0,0,0-2.63H40.55A4.17,4.17,0,0,1,36.39,44v-2.5H53.56A3.45,3.45,0,0,0,57,38V3.44A3.44,3.44,0,0,0,53.56,0ZM21.81,48.15A6.75,6.75,0,0,0,23.24,44v-2.5H33.76V44a6.75,6.75,0,0,0,1.43,4.16ZM54.37,38a.81.81,0,0,1-.81.81H3.44A.81.81,0,0,1,2.63,38V31.14H54.37Zm0-9.53H2.63V3.44a.81.81,0,0,1,.81-.81H53.56a.81.81,0,0,1,.81.81V28.51Z"/><circle class="a" cx="28.5" cy="35" r="1.42"/><path class="a" d="M30.75,9.05a1.31,1.31,0,0,0-1.86,0l-9.29,9.29a1.31,1.31,0,0,0,1.86,1.86l9.29-9.29A1.31,1.31,0,0,0,30.75,9.05Z"/><path class="a" d="M36.26,14.43a1.31,1.31,0,0,0-1.86,0l-3.7,3.7A1.31,1.31,0,1,0,32.56,20l3.7-3.7A1.31,1.31,0,0,0,36.26,14.43Z"/></svg>