<svg xmlns="http://www.w3.org/2000/svg" viewBox="0 0 52.03 63.27"><defs><style>.a{fill:#fff;}</style></defs><title>Asset 18</title><path class="a" d="M50.71,7.74A56.23,56.23,0,0,1,26.7.18a1.41,1.41,0,0,0-1.38,0,56.23,56.23,0,0,1-24,7.56A1.41,1.41,0,0,0,0,9.14V35.86a21.46,21.46,0,0,0,4.1,12.5,34.68,34.68,0,0,0,8.81,8.44,54.93,54.93,0,0,0,8.69,4.83A29.19,29.19,0,0,0,26,63.27a1.4,1.4,0,0,0,.43-.07,53.86,53.86,0,0,0,12.67-6.4,34.68,34.68,0,0,0,8.81-8.44A21.46,21.46,0,0,0,52,35.86V9.14A1.41,1.41,0,0,0,50.71,7.74ZM49.21,35.86c0,7-3.91,13.25-11.64,18.59A52.62,52.62,0,0,1,26,60.38a52.64,52.64,0,0,1-11.56-5.93C6.73,49.11,2.81,42.85,2.81,35.86V10.44A59.28,59.28,0,0,0,26,3a59.28,59.28,0,0,0,23.2,7.43Z"/><path class="a" d="M24.93,10s-3.78,4.61-7.46,10.12C12.41,27.7,9.84,33.39,9.84,37.05a16.17,16.17,0,0,0,32.34,0c0-3.66-2.56-9.35-7.62-16.91C30.88,14.64,27.14,10.07,27.1,10a1.41,1.41,0,0,0-2.17,0ZM26,50.41a2.19,2.19,0,0,1-2.19-2.19c0-.68,1-2.4,2.19-4,1.17,1.62,2.19,3.36,2.19,4A2.19,2.19,0,0,1,26,50.41ZM39.37,37.05a13.32,13.32,0,0,1-4.22,9.74,9.65,9.65,0,0,0,.57-3.27A12.62,12.62,0,0,0,33.94,38a1.41,1.41,0,1,0-2.49,1.31,10,10,0,0,1,1.45,4.19A6.86,6.86,0,0,1,31,48.26v0c0-2.31-3-6.11-3.92-7.22a1.41,1.41,0,0,0-2.17,0C24,42.11,21,45.91,21,48.22v0a6.86,6.86,0,0,1-1.89-4.73c0-2.64,3.86-8.47,6.89-12.35l.31.4a1.41,1.41,0,0,0,2.23-1.71c-.85-1.11-1.43-1.81-1.45-1.84a1.41,1.41,0,0,0-2.17,0c-.88,1.07-8.62,10.55-8.62,15.5a9.65,9.65,0,0,0,.57,3.27,13.32,13.32,0,0,1-4.22-9.74c0-5.77,8.82-18.13,13.36-23.89C30.56,18.92,39.37,31.28,39.37,37.05Z"/><path class="a" d="M29.19,35.53a1.41,1.41,0,1,0-.41-1A1.42,1.42,0,0,0,29.19,35.53Z"/></svg>