<svg xmlns="http://www.w3.org/2000/svg" viewBox="0 0 61.01 61.01"><defs><style>.a{fill:#666;}</style></defs><title>Asset 11</title><path class="a" d="M25.5,32.29V38h10V32.29Z"/><path class="a" d="M30.51,23a3,3,0,0,0-3,3v2.74h6V26A3,3,0,0,0,30.51,23Z"/><path class="a" d="M55.05,49.1a5.92,5.92,0,0,0-2.75.68l-4.16-4.16a23.19,23.19,0,0,0,0-30.22l4.16-4.16a6,6,0,1,0-2.53-2.53l-4.16,4.16a23.19,23.19,0,0,0-30.22,0L11.24,8.71a6,6,0,1,0-2.53,2.53l4.16,4.16a23.19,23.19,0,0,0,0,30.22L8.71,49.77a6,6,0,1,0,2.53,2.53l4.16-4.16a23.19,23.19,0,0,0,30.22,0l4.16,4.16a6,6,0,1,0,5.28-3.2Zm-16-9.29a1.79,1.79,0,0,1-1.79,1.79H23.71a1.79,1.79,0,0,1-1.79-1.79V30.51a1.79,1.79,0,0,1,1.79-1.79H24V26a6.55,6.55,0,1,1,13.11,0v2.74h.24a1.79,1.79,0,0,1,1.79,1.79Z"/></svg>