<svg xmlns="http://www.w3.org/2000/svg" viewBox="0 0 60 59.75"><defs><style>.a{fill:#fff;}</style></defs><title>Asset 17</title><path class="a" d="M10.5,6A4.5,4.5,0,1,0,15,10.5,4.51,4.51,0,0,0,10.5,6Zm0,7A2.5,2.5,0,1,1,13,10.5,2.5,2.5,0,0,1,10.5,13Z"/><circle class="a" cx="50" cy="9" r="1"/><circle class="a" cx="46" cy="9" r="1"/><circle class="a" cx="52" cy="12" r="1"/><circle class="a" cx="48" cy="12" r="1"/><circle class="a" cx="42" cy="9" r="1"/><circle class="a" cx="44" cy="12" r="1"/><circle class="a" cx="38" cy="9" r="1"/><circle class="a" cx="40" cy="12" r="1"/><circle class="a" cx="34" cy="9" r="1"/><circle class="a" cx="36" cy="12" r="1"/><path class="a" d="M10.5,25A4.5,4.5,0,1,0,15,29.5,4.51,4.51,0,0,0,10.5,25Zm0,7A2.5,2.5,0,1,1,13,29.5,2.5,2.5,0,0,1,10.5,32Z"/><path class="a" d="M10.5,44A4.5,4.5,0,1,0,15,48.5,4.51,4.51,0,0,0,10.5,44Zm0,7A2.5,2.5,0,1,1,13,48.5,2.5,2.5,0,0,1,10.5,51Z"/><path class="a" d="M60,16.39V4.61A4.61,4.61,0,0,0,55.39,0H4.61A4.61,4.61,0,0,0,0,4.61V16.39A4.58,4.58,0,0,0,1.78,20,4.59,4.59,0,0,0,0,23.61V35.39A4.58,4.58,0,0,0,1.78,39,4.59,4.59,0,0,0,0,42.61V54.39A4.61,4.61,0,0,0,4.61,59H32.48a47.79,47.79,0,0,0,8.52.75c8.67,0,17.82-2.25,18.9-6.55a1,1,0,0,0,.1-.45V25a1,1,0,0,0-.1-.42c-.35-1.46-1.65-2.7-3.56-3.68A4.61,4.61,0,0,0,60,16.39Zm-58,19V23.61A2.61,2.61,0,0,1,4.61,21H25.47c-1.81,1-3,2.17-3.37,3.58A1,1,0,0,0,22,25V38H4.61A2.61,2.61,0,0,1,2,35.39Zm22.63-6.14.14.09.55.32.16.09.73.36.12.06.68.29.21.08.85.31,0,0,.85.27.24.07.88.24.07,0,1,.24.25.06.87.18.17,0,1,.18.25,0,.88.13.24,0,1.08.13.22,0,.92.08.28,0,1.1.07h.16l1,0h2.83l1,0h.16l1.1-.07.28,0,.92-.08.22,0,1.08-.12.24,0,.88-.13.25,0,1-.18.17,0,.87-.18.25-.06,1-.24.07,0,.88-.24.24-.07.85-.27,0,0,.85-.31.21-.08.68-.29.12-.06.73-.36.16-.09.55-.32.14-.09q.31-.2.59-.41l0,0v5a1,1,0,0,0,0,.35,1.16,1.16,0,0,1,0,.22,1.45,1.45,0,0,1-.06.33,1.73,1.73,0,0,1-.08.26,2,2,0,0,1-.12.23l-.14.23a3.3,3.3,0,0,1-.26.31l-.11.12c-2.12,2-8.36,3.9-16.22,3.9s-14.1-1.85-16.22-3.9l-.12-.13a3.36,3.36,0,0,1-.25-.3,2.5,2.5,0,0,1-.15-.24,2.06,2.06,0,0,1-.11-.21,1.71,1.71,0,0,1-.09-.27,1.37,1.37,0,0,1-.06-.33,1.26,1.26,0,0,1,0-.21,1,1,0,0,0,0-.38v-5l0,0Q24.32,29.05,24.63,29.25ZM57.86,44a2,2,0,0,1-.12.23l-.14.23a3.3,3.3,0,0,1-.26.31l-.11.12c-2.12,2-8.36,3.9-16.22,3.9s-14.1-1.85-16.22-3.9l-.12-.13a3.36,3.36,0,0,1-.25-.3,2.5,2.5,0,0,1-.15-.24,2.06,2.06,0,0,1-.11-.21,1.71,1.71,0,0,1-.09-.27,1.4,1.4,0,0,1,0-.28V43.3s0-.09,0-.13a1,1,0,0,0,0-.26V37.81l.13.09.39.28.34.22.55.32h0a26,26,0,0,0,8.13,2.46h.07c1,.16,2.07.28,3.14.37l.68.06.67,0,.91,0,.53,0,1.46,0,1.46,0,.53,0,.9,0,.68,0,.67-.05c1.08-.09,2.14-.22,3.17-.38h0a24.36,24.36,0,0,0,8.68-2.78l.34-.22.39-.28.14-.1v5a1,1,0,0,0,0,.35,1.6,1.6,0,0,1,0,.22,1.45,1.45,0,0,1-.06.33A1.74,1.74,0,0,1,57.86,44ZM4.61,57A2.61,2.61,0,0,1,2,54.39V42.61A2.61,2.61,0,0,1,4.61,40H22V53.75h.3l.06.11.11.22a4.52,4.52,0,0,0,.28.44,5.07,5.07,0,0,0,.34.42l.19.21a8,8,0,0,0,1.37,1.11l.06,0A12.54,12.54,0,0,0,26,57H4.61ZM58,52.49l0,.09c-.41,2.49-7.33,5.16-17,5.16A45.2,45.2,0,0,1,32.72,57h0c-5-.94-7.73-2.53-8.49-3.87h0c0-.06-.06-.12-.09-.18a1.71,1.71,0,0,1-.12-.37V46.82l.12.08.39.28.34.22.55.32h0a26,26,0,0,0,8.13,2.45h.07c1,.16,2.07.28,3.14.37l.68.06.67,0,.91,0,.53,0,1.46,0,1.46,0,.53,0,.9,0,.68,0,.67-.05c1.08-.09,2.14-.22,3.17-.38h0a24.36,24.36,0,0,0,8.68-2.78l.34-.22.39-.28.14-.1Zm0-27.12c0,2.54-7.27,5.38-17,5.38s-17-2.84-17-5.37a1.44,1.44,0,0,1,.07-.39,1.86,1.86,0,0,1,.17-.4v0a5.4,5.4,0,0,1,2-1.73l.13-.07.56-.28.72-.32.15-.06A26,26,0,0,1,32,20.9c.49-.1,1-.2,1.51-.29l.41-.07a48.81,48.81,0,0,1,14.18,0l.42.07c.51.08,1,.18,1.5.29C54.88,21.93,58,23.72,58,25.38Zm0-9A2.61,2.61,0,0,1,55.39,19H50.76l-.18,0c-.66-.14-1.33-.27-2-.38l-.2,0a49,49,0,0,0-14.72,0l-.21,0c-.69.11-1.36.24-2,.38l-.18,0H4.61A2.61,2.61,0,0,1,2,16.39V4.61A2.61,2.61,0,0,1,4.61,2H55.39A2.61,2.61,0,0,1,58,4.61Z"/></svg>