<svg xmlns="http://www.w3.org/2000/svg" viewBox="0 0 46.66 54.72"><defs><style>.a{fill:#40863e;}</style></defs><title>Asset 15</title><path class="a" d="M45.82,9.45A91,91,0,0,1,23.92.16a1.15,1.15,0,0,0-1.17,0A88.53,88.53,0,0,1,.85,9.45,1.15,1.15,0,0,0,0,10.56V22.32A33.83,33.83,0,0,0,10.27,47c5,4.94,10.92,7.68,13.06,7.68S31.34,52,36.39,47A33.83,33.83,0,0,0,46.66,22.32V10.56A1.15,1.15,0,0,0,45.82,9.45ZM44.36,22.32A31.58,31.58,0,0,1,34.78,45.4c-5,4.86-10.27,7-11.45,7s-6.48-2.16-11.45-7A31.58,31.58,0,0,1,2.3,22.32V11.43a90.65,90.65,0,0,0,21-8.95,93.52,93.52,0,0,0,21,8.95Z"/><path class="a" d="M13.13,11.3a1.15,1.15,0,0,0-1.49-.65c-2.06.81-4.17,1.56-6.27,2.22A1.15,1.15,0,0,0,4.56,14v4.44a1.15,1.15,0,1,0,2.3,0v-3.6c1.89-.61,3.78-1.29,5.62-2A1.15,1.15,0,0,0,13.13,11.3Z"/><path class="a" d="M15.32,11.52a1.15,1.15,0,0,0,.46-.1h0a1.15,1.15,0,1,0-.93-2.11h0a1.15,1.15,0,0,0,.47,2.2Z"/><path class="a" d="M37,37.11a1.15,1.15,0,0,0-1.59.33,28,28,0,0,1-3.31,4.13,29.4,29.4,0,0,1-3.3,2.94,1.15,1.15,0,1,0,1.4,1.83,31.73,31.73,0,0,0,3.56-3.17,30.29,30.29,0,0,0,3.58-4.47A1.15,1.15,0,0,0,37,37.11Z"/><path class="a" d="M26.17,46.32l-.07,0a1.15,1.15,0,1,0,1.15,2l.08,0a1.15,1.15,0,1,0-1.16-2Z"/><path class="a" d="M15.49,25a3.74,3.74,0,1,0-5.29,5.29L17,37.1a3.74,3.74,0,0,0,5.29,0L36.47,22.91a3.74,3.74,0,0,0-5.29-5.29L19.64,29.16Zm17.32-5.76a1.44,1.44,0,1,1,2,2L20.66,35.47a1.44,1.44,0,0,1-2,0l-6.8-6.8a1.44,1.44,0,0,1,2-2l5,5a1.15,1.15,0,0,0,1.63,0Z"/></svg>