<svg xmlns="http://www.w3.org/2000/svg" viewBox="0 0 53.72 50.01"><defs><style>.a{fill:#fff;}</style></defs><title>Asset 20</title><path class="a" d="M5,26.35a1.58,1.58,0,0,0,1.21,0l9.31-4a1.58,1.58,0,0,0,0-2.92l-2.55-1a15.3,15.3,0,0,1,28.2.06A4.38,4.38,0,0,0,46,21.06L46.3,21a4.38,4.38,0,0,0,3.2-6A24.53,24.53,0,0,0,27,0,24.27,24.27,0,0,0,4.49,15l-2.32-.93a1.58,1.58,0,0,0-2,2.09l4,9.31A1.57,1.57,0,0,0,5,26.35Z"/><path class="a" d="M53.6,33.81l-4-9.31a1.58,1.58,0,0,0-2.07-.83l-9.31,4a1.58,1.58,0,0,0,0,2.92l2.55,1a15.3,15.3,0,0,1-28.2-.06,4.38,4.38,0,0,0-4.86-2.6L7.43,29a4.38,4.38,0,0,0-3.2,6,24.53,24.53,0,0,0,22.5,15A24.27,24.27,0,0,0,49.24,35l2.32.93a1.58,1.58,0,0,0,2-2.09Z"/></svg>