<svg xmlns="http://www.w3.org/2000/svg" viewBox="0 0 64.16 49.35"><defs><style>.a{fill:#fff;}</style></defs><title>Asset 19</title><path class="a" d="M63.42,13.08A43.8,43.8,0,0,0,32.08,0,43.38,43.38,0,0,0,.74,13.08a2.39,2.39,0,0,0,0,3.45L4.19,20a2.39,2.39,0,0,0,3.45,0,34.55,34.55,0,0,1,48.86,0A2.39,2.39,0,0,0,60,20l3.45-3.45a2.24,2.24,0,0,0,.74-1.73A1.92,1.92,0,0,0,63.42,13.08Z"/><path class="a" d="M32.08,19.74A24,24,0,0,0,14.81,26.9a2.39,2.39,0,0,0,0,3.45l3.45,3.45a2.39,2.39,0,0,0,3.45,0,14.55,14.55,0,0,1,10.36-4.19,15.66,15.66,0,0,1,10.36,4.19,2.39,2.39,0,0,0,3.45,0l3.45-3.45a2.39,2.39,0,0,0,0-3.45A24,24,0,0,0,32.08,19.74Z"/><circle class="a" cx="32.08" cy="44.42" r="4.94"/></svg>